
<svg width="13px" height="13px" viewBox="0 0 13 13" version="1.1" xmlns="http://www.w3.org/2000/svg" xmlns:xlink="http://www.w3.org/1999/xlink">
    <!-- Generator: Sketch 46.2 (44496) - http://www.bohemiancoding.com/sketch -->
    <desc>Created with Sketch.</desc>
    <defs></defs>
    <g id="Resume" stroke="none" stroke-width="1" fill="none" fill-rule="evenodd">
        <g id="A4" transform="translate(-434.000000, -58.000000)" fill="#5A5A5A">
            <g id="Contact-Info" transform="translate(38.000000, 58.000000)">
                <g id="Github" transform="translate(396.000000, 0.000000)">
                    <g id="Layer_1">
                        <g id="social-github">
                            <g id="Layer_1">
                                <path d="M6.5,0 C2.91049107,0 0,2.9859375 0,6.66540179 C0,9.61071429 1.86294643,12.10625 4.44553571,12.9883929 C4.48616071,12.9970982 4.52098214,13 4.55580357,13 C4.79665179,13 4.88950893,12.8229911 4.88950893,12.6691964 C4.88950893,12.5095982 4.88370536,12.0917411 4.88080357,11.5345982 C4.63705357,11.5897321 4.41941964,11.6129464 4.225,11.6129464 C2.97433036,11.6129464 2.68995536,10.6408482 2.68995536,10.6408482 C2.39397321,9.871875 1.96741071,9.66584821 1.96741071,9.66584821 C1.4015625,9.26830357 1.96450893,9.25669643 2.00803571,9.25669643 L2.0109375,9.25669643 C2.66383929,9.31473214 3.00625,9.94732143 3.00625,9.94732143 C3.33125,10.5160714 3.76651786,10.6756696 4.15535714,10.6756696 C4.46004464,10.6756696 4.73571429,10.5770089 4.89821429,10.5015625 C4.95625,10.0720982 5.12455357,9.77901786 5.31026786,9.61071429 C3.86808036,9.44241071 2.35044643,8.87075893 2.35044643,6.3171875 C2.35044643,5.58883929 2.60290179,4.99397321 3.01785714,4.5296875 C2.95111607,4.36138393 2.72767857,3.68236607 3.08169643,2.76540179 C3.08169643,2.76540179 3.128125,2.75089286 3.22678571,2.75089286 C3.46183036,2.75089286 3.99285714,2.84084821 4.86919643,3.45022321 C5.38861607,3.30223214 5.94285714,3.2296875 6.49709821,3.22678571 C7.0484375,3.2296875 7.60558036,3.30223214 8.125,3.45022321 C9.00133929,2.84084821 9.53236607,2.75089286 9.76741071,2.75089286 C9.86607143,2.75089286 9.9125,2.76540179 9.9125,2.76540179 C10.2665179,3.68236607 10.0430804,4.36138393 9.97633929,4.5296875 C10.3912946,4.996875 10.64375,5.59174107 10.64375,6.3171875 C10.64375,8.8765625 9.12321429,9.43950893 7.67522321,9.60491071 C7.90736607,9.8109375 8.11629464,10.2171875 8.11629464,10.8381696 C8.11629464,11.7290179 8.10758929,12.4486607 8.10758929,12.6662946 C8.10758929,12.8229911 8.19754464,13 8.43839286,13 C8.47321429,13 8.51383929,12.9970982 8.55446429,12.9883929 C11.1399554,12.10625 13,9.6078125 13,6.66540179 C13,2.9859375 10.0895089,0 6.5,0 L6.5,0 Z" id="Shape"></path>
                            </g>
                        </g>
                    </g>
                </g>
            </g>
        </g>
    </g>
</svg>