
<svg width="15px" height="14px" viewBox="0 0 15 14" version="1.1" xmlns="http://www.w3.org/2000/svg" xmlns:xlink="http://www.w3.org/1999/xlink">
    <!-- Generator: Sketch 46.2 (44496) - http://www.bohemiancoding.com/sketch -->
    <desc>Created with Sketch.</desc>
    <defs></defs>
    <g id="Resume" stroke="none" stroke-width="1" fill="none" fill-rule="evenodd">
        <g id="A4" transform="translate(-313.000000, -58.000000)" fill="#5A5A5A">
            <g id="Contact-Info" transform="translate(38.000000, 58.000000)">
                <g id="Personal-page" transform="translate(275.333333, 0.000000)">
                    <g id="person">
                        <g id="Layer_1">
                            <path d="M14,14 C14,14 14,13.0375 13.9197917,12.534375 C13.8541667,12.1369792 13.3036458,11.6119792 10.9630208,10.7515625 C8.65885417,9.90572917 8.80104167,10.3177083 8.80104167,8.7609375 C8.80104167,7.75104167 9.31510417,8.33802083 9.64322917,6.4203125 C9.77083333,5.665625 9.87291667,6.16875 10.15,4.95833333 C10.2958333,4.32395833 10.0515625,4.2765625 10.0807292,3.97395833 C10.1098958,3.67135417 10.1390625,3.4015625 10.19375,2.78177083 C10.259375,2.01614583 9.5484375,0 7,0 C4.4515625,0 3.740625,2.01614583 3.80989583,2.78541667 C3.86458333,3.4015625 3.89375,3.675 3.92291667,3.97760417 C3.95208333,4.28020833 3.7078125,4.32760417 3.85364583,4.96197917 C4.13072917,6.16875 4.2328125,5.665625 4.36041667,6.42395833 C4.68854167,8.34166667 5.20260417,7.7546875 5.20260417,8.76458333 C5.20260417,10.325 5.34479167,9.91302083 3.040625,10.7552083 C0.7,11.6119792 0.145833333,12.140625 0.0838541667,12.5380208 C0,13.0375 0,14 0,14 L7,14 L14,14 L14,14 Z" id="Shape"></path>
                        </g>
                    </g>
                </g>
            </g>
        </g>
    </g>
</svg>