
<svg width="15px" height="14px" viewBox="0 0 15 14" version="1.1" xmlns="http://www.w3.org/2000/svg" xmlns:xlink="http://www.w3.org/1999/xlink">
    <!-- Generator: Sketch 46.2 (44496) - http://www.bohemiancoding.com/sketch -->
    <desc>Created with Sketch.</desc>
    <defs></defs>
    <g id="Resume" stroke="none" stroke-width="1" fill="none" fill-rule="evenodd">
        <g id="A4" transform="translate(-193.000000, -58.000000)" fill="#5A5A5A">
            <g id="Contact-Info" transform="translate(38.000000, 58.000000)">
                <g id="Phone" transform="translate(155.666667, 0.000000)">
                    <g id="ios-telephone">
                        <g id="Layer_1">
                            <path d="M13.3614731,10.1331445 C12.7824363,9.53824363 11.1365439,8.42379603 10.0577904,8.42379603 C9.80793201,8.42379603 9.5898017,8.47932011 9.41133144,8.59433428 C8.88385269,8.93144476 8.46345609,9.19320113 8.2611898,9.19320113 C8.15014164,9.19320113 8.03116147,9.09405099 7.7694051,8.86798867 L7.72577904,8.82832861 C7,8.19773371 6.84532578,8.03512748 6.56373938,7.74164306 L6.49235127,7.66628895 C6.4407932,7.61473088 6.39716714,7.56713881 6.35354108,7.52351275 C6.10764873,7.26968839 5.92917847,7.08725212 5.29858357,6.3733711 L5.27082153,6.34164306 C4.9694051,6.00056657 4.77110482,5.77847025 4.7592068,5.61586402 C4.74730878,5.4572238 4.88611898,5.19943343 5.23909348,4.71954674 C5.6674221,4.14050992 5.68328612,3.4266289 5.29065156,2.59773371 C4.97733711,1.94334278 4.46572238,1.31671388 4.01359773,0.765439093 L3.97393768,0.717847025 C3.58526912,0.241926346 3.13314448,0.00396600567 2.62946176,0.00396600567 C2.07025496,0.00396600567 1.60623229,0.305382436 1.36033994,0.464022663 C1.34050992,0.47592068 1.32067989,0.491784703 1.30084986,0.50368272 C0.749575071,0.852691218 0.349008499,1.3325779 0.198300283,1.8203966 C-0.0277620397,2.55410765 -0.178470255,3.50594901 0.904249292,5.48498584 C1.84022663,7.19830028 2.68895184,8.34844193 4.03739377,9.7325779 C5.30651558,11.0334278 5.86968839,11.4538244 7.13087819,12.3660057 C8.53484419,13.3813031 9.88328612,13.9643059 10.8271955,13.9643059 C11.7036827,13.9643059 12.3937677,13.9643059 13.3773371,12.7784703 C14.4084986,11.5331445 13.98017,10.7716714 13.3614731,10.1331445 L13.3614731,10.1331445 Z" id="Shape"></path>
                        </g>
                    </g>
                </g>
            </g>
        </g>
    </g>
</svg>